<?xml version="1.0" encoding="utf-8"?>
<!-- Svg Vector Icons : http://www.onlinewebfonts.com/icon -->
<!DOCTYPE svg PUBLIC "-//W3C//DTD SVG 1.1//EN" "http://www.w3.org/Graphics/SVG/1.1/DTD/svg11.dtd">
<svg version="1.1" xmlns="http://www.w3.org/2000/svg" xmlns:xlink="http://www.w3.org/1999/xlink" x="0px" y="0px" viewBox="0 0 256 256" enable-background="new 0 0 256 256" xml:space="preserve">
<metadata> Svg Vector Icons : http://www.onlinewebfonts.com/icon </metadata>
<g><g><path fill="#000000" d="M37.4,206.7c-65-89.1,5.8-157.5,6.5-158.2l7.7,8.2l-3.9-4.1l3.9,4.1c-2.6,2.5-64.2,62.5-5.1,143.4L37.4,206.7z"/><path fill="#000000" d="M218.6,206.7l-9.1-6.6c59.2-81.1-2.5-140.9-5.1-143.4l7.7-8.2C212.8,49.2,283.5,117.7,218.6,206.7z"/><path fill="#000000" d="M81.4,104.6h9l21.4,49.2H99.5l-4.2-10.4H76.2l-4.1,10.4H60.1L81.4,104.6z M85.5,118.9l-6,15.3h12L85.5,118.9z"/><path fill="#000000" d="M116.7,104.6H135c2.1,0,4.3,0.1,6.4,0.5c2.1,0.3,4.1,0.9,5.8,1.8c1.7,0.9,3.1,2.2,4.2,3.8c1.1,1.6,1.6,3.8,1.6,6.5c0,2.8-0.8,5.1-2.3,6.9c-1.5,1.8-3.6,3.1-6.1,3.9v0.1c1.6,0.2,3.1,0.7,4.4,1.3c1.3,0.7,2.5,1.5,3.4,2.6c0.9,1,1.7,2.3,2.2,3.6c0.5,1.4,0.8,2.9,0.8,4.5c0,2.6-0.6,4.7-1.7,6.5c-1.1,1.7-2.6,3.1-4.3,4.2c-1.8,1.1-3.7,1.8-5.9,2.3c-2.2,0.5-4.4,0.7-6.6,0.7h-20.1L116.7,104.6L116.7,104.6z M127.5,124.2h7.9c0.8,0,1.7-0.1,2.5-0.3c0.8-0.2,1.5-0.5,2.2-0.9c0.6-0.4,1.2-1,1.6-1.7c0.4-0.7,0.6-1.5,0.6-2.5c0-1-0.2-1.9-0.7-2.5s-1-1.2-1.7-1.6c-0.7-0.4-1.5-0.6-2.4-0.8s-1.7-0.2-2.6-0.2h-7.4V124.2L127.5,124.2z M127.5,144.6h9.7c0.8,0,1.7-0.1,2.5-0.3c0.9-0.2,1.6-0.5,2.3-1c0.7-0.5,1.3-1.1,1.7-1.8c0.4-0.7,0.7-1.6,0.7-2.7c0-1.2-0.3-2.1-0.9-2.8c-0.6-0.7-1.3-1.3-2.2-1.6c-0.9-0.4-1.8-0.6-2.8-0.8c-1-0.1-2-0.2-2.8-0.2h-8.2L127.5,144.6L127.5,144.6z"/><path fill="#000000" d="M186,116.6c-0.9-1.1-2.1-1.9-3.6-2.5c-1.5-0.5-2.9-0.8-4.3-0.8c-0.8,0-1.6,0.1-2.4,0.3c-0.8,0.2-1.6,0.5-2.4,0.9c-0.7,0.4-1.3,0.9-1.8,1.6c-0.5,0.7-0.7,1.4-0.7,2.4c0,1.5,0.6,2.6,1.7,3.4c1.1,0.8,2.5,1.5,4.2,2c1.7,0.6,3.5,1.1,5.4,1.7c2,0.6,3.8,1.3,5.4,2.4c1.7,1,3.1,2.4,4.2,4.1c1.1,1.7,1.7,4,1.7,6.9c0,2.7-0.5,5.1-1.5,7.2c-1,2-2.4,3.7-4.1,5.1c-1.7,1.3-3.8,2.3-6,3c-2.3,0.7-4.7,1-7.2,1c-3.2,0-6.2-0.5-8.9-1.4c-2.7-1-5.3-2.6-7.6-4.7l7.7-8.5c1.1,1.5,2.5,2.6,4.2,3.4c1.7,0.8,3.4,1.2,5.3,1.2c0.9,0,1.8-0.1,2.7-0.3c0.9-0.2,1.7-0.5,2.4-0.9c0.7-0.4,1.3-0.9,1.7-1.6c0.4-0.7,0.7-1.4,0.7-2.3c0-1.5-0.6-2.6-1.7-3.5c-1.1-0.9-2.6-1.6-4.3-2.2c-1.7-0.6-3.6-1.2-5.6-1.8c-2-0.6-3.9-1.4-5.6-2.4c-1.7-1-3.1-2.4-4.3-4c-1.1-1.7-1.7-3.9-1.7-6.6c0-2.6,0.5-5,1.6-6.9c1-2,2.4-3.7,4.2-5c1.7-1.3,3.7-2.3,6-3c2.3-0.7,4.6-1,7-1c2.8,0,5.5,0.4,8.1,1.2c2.6,0.8,4.9,2.1,7,3.9L186,116.6z"/><path fill="#000000" d="M128.9,217.7c-49.5,0-89.8-40.2-89.8-89.7s40.3-89.7,89.8-89.7s89.8,40.2,89.8,89.7S178.4,217.7,128.9,217.7z M128.9,49.5c-43.3,0-78.5,35.2-78.5,78.5c0,43.3,35.2,78.5,78.5,78.5c43.3,0,78.5-35.2,78.5-78.5C207.4,84.7,172.2,49.5,128.9,49.5z"/></g></g>
</svg>