<svg xmlns="http://www.w3.org/2000/svg" xmlns:xlink="http://www.w3.org/1999/xlink" viewBox="0 0 100 125" version="1.1" x="0px" y="0px"><title>tyre</title><g stroke="none" stroke-width="1" fill="none" fill-rule="evenodd"><path d="M51.3144876,14.3811543 L52.247821,14.3883362 L52.2482628,20.7100817 C68.174207,21.2032911 80.9333333,34.2688625 80.9333333,50.3144876 C80.9333333,66.6725244 67.6725244,79.9333333 51.3144876,79.9333333 C35.2685273,79.9333333 22.2027452,67.1736739 21.7100508,51.2472647 L15.3767242,51.247821 L15.3811543,50.3144876 C15.3811543,30.4690556 31.4690556,14.3811543 51.3144876,14.3811543 Z M52.3645386,22.5818071 L52.3645465,23.452713 L52.2477242,23.4521543 L52.247821,28.3926973 L51.3144876,28.3926973 C39.2074171,28.3926973 29.3926973,38.2074171 29.3926973,50.3144876 L29.3926973,51.247821 L23.5777004,51.2475995 C24.0698008,66.1427231 36.2996511,78.0666667 51.3144876,78.0666667 C66.6415929,78.0666667 79.0666667,65.6415929 79.0666667,50.3144876 C79.0666667,35.3389647 67.2050826,23.1338631 52.3645386,22.5818071 Z M51.3144876,34.4558304 C60.0729822,34.4558304 67.1731449,41.5559931 67.1731449,50.3144876 C67.1731449,59.0729822 60.0729822,66.1731449 51.3144876,66.1731449 C42.5559931,66.1731449 35.4558304,59.0729822 35.4558304,50.3144876 C35.4558304,41.5559931 42.5559931,34.4558304 51.3144876,34.4558304 Z M51.3144876,36.3224971 C43.5869246,36.3224971 37.3224971,42.5869246 37.3224971,50.3144876 C37.3224971,58.0420506 43.5869246,64.3064782 51.3144876,64.3064782 C59.0420506,64.3064782 65.3064782,58.0420506 65.3064782,50.3144876 C65.3064782,42.5869246 59.0420506,36.3224971 51.3144876,36.3224971 Z M52.3645465,58.4770318 L52.3645465,61.7420495 L50.4978799,61.7420495 L50.4978799,58.4770318 L52.3645465,58.4770318 Z M45.0775614,55.2377498 L46.397494,56.5576825 L44.0887779,58.8663986 L42.7688453,57.546466 L45.0775614,55.2377498 Z M58.3181983,55.2377498 L60.6269145,57.546466 L59.3069818,58.8663986 L56.9982657,56.5576825 L58.3181983,55.2377498 Z M51.3144876,44.0176678 C54.7921252,44.0176678 57.6113074,46.8368501 57.6113074,50.3144876 C57.6113074,53.7921252 54.7921252,56.6113074 51.3144876,56.6113074 C47.8368501,56.6113074 45.0176678,53.7921252 45.0176678,50.3144876 C45.0176678,46.8368501 47.8368501,44.0176678 51.3144876,44.0176678 Z M51.3144876,45.8843345 C48.8677816,45.8843345 46.8843345,47.8677816 46.8843345,50.3144876 C46.8843345,52.7611936 48.8677816,54.7446408 51.3144876,54.7446408 C53.7611936,54.7446408 55.7446408,52.7611936 55.7446408,50.3144876 C55.7446408,47.8677816 53.7611936,45.8843345 51.3144876,45.8843345 Z M63.1254417,49.1144876 L63.1254417,50.9811543 L59.860424,50.9811543 L59.860424,49.1144876 L63.1254417,49.1144876 Z M43.5353357,49.1144876 L43.5353357,50.9811543 L40.270318,50.9811543 L40.270318,49.1144876 L43.5353357,49.1144876 Z M17.2603692,49.3807838 L27.5447242,49.3803362 L27.5545665,49.1390042 C28.1483463,36.9364858 37.9364858,27.1483463 50.1390042,26.5545665 L50.3807242,26.5443362 L50.3807838,16.2603692 C32.3081751,16.7466849 17.7466849,31.3081751 17.2603692,49.3807838 Z M58.9298582,41.385453 L60.2497908,42.7053857 L57.9410747,45.0141018 L56.6211421,43.6941692 L58.9298582,41.385453 Z M44.4659015,41.385453 L46.7746177,43.6941692 L45.454685,45.0141018 L43.1459689,42.7053857 L44.4659015,41.385453 Z M23.9364837,42.1856598 L25.9239441,42.7181982 L25.4408152,44.5212598 L23.4533548,43.9887214 L23.9364837,42.1856598 Z M52.3645465,38.8869258 L52.3645465,42.1519435 L50.4978799,42.1519435 L50.4978799,38.8869258 L52.3645465,38.8869258 Z M26.9863258,35.2774649 L28.768234,36.3062501 L27.8349007,37.9228308 L26.0529924,36.8940456 L26.9863258,35.2774649 Z M31.7202194,29.3940181 L33.1751414,30.8489401 L31.8552088,32.1688728 L30.4002868,30.7139508 L31.7202194,29.3940181 Z M37.8155576,24.9362669 L38.8443428,26.7181751 L37.2277621,27.6515084 L36.1989769,25.8696002 L37.8155576,24.9362669 Z M44.8569531,22.2079994 L45.3894916,24.1954598 L43.58643,24.6785887 L43.0538916,22.6911283 L44.8569531,22.2079994 Z" fill="#000000" fill-rule="nonzero"/></g><text x="0" y="115" fill="#000000" font-size="5px" font-weight="bold" font-family="'Helvetica Neue', Helvetica, Arial-Unicode, Arial, Sans-serif">Created by Li, Zenghui</text><text x="0" y="120" fill="#000000" font-size="5px" font-weight="bold" font-family="'Helvetica Neue', Helvetica, Arial-Unicode, Arial, Sans-serif">from the Noun Project</text></svg>