<svg xmlns="http://www.w3.org/2000/svg" xmlns:xlink="http://www.w3.org/1999/xlink" version="1.1" x="0px" y="0px" viewBox="0 0 100 125" enable-background="new 0 0 100 100" xml:space="preserve"><g><path fill="#000000" d="M34.885,42.677c-4.489,0-8.14,3.652-8.14,8.142s3.651,8.141,8.14,8.141c4.489,0,8.141-3.651,8.141-8.141   S39.374,42.677,34.885,42.677z M34.096,44.308v4.854l-5.208-0.997C29.808,46.096,31.764,44.589,34.096,44.308z M28.323,50.818   c0-0.388,0.041-0.766,0.105-1.136l5.135,0.983l-3.26,4.842C29.083,54.315,28.323,52.655,28.323,50.818z M34.885,57.381   c-1.214,0-2.348-0.338-3.324-0.915l3.27-4.855l2.917,5.104C36.88,57.138,35.912,57.381,34.885,57.381z M41.448,50.818   c0,2.025-0.923,3.84-2.371,5.044L36.127,50.7l5.231-0.914C41.412,50.123,41.448,50.466,41.448,50.818z M35.674,49.177v-4.869   c2.368,0.285,4.353,1.832,5.254,3.951L35.674,49.177z"/><path fill="#000000" d="M52.2,27.409H35.263v0.012c-0.126-0.002-0.251-0.012-0.378-0.012c-12.908,0-23.409,10.501-23.409,23.409   s10.501,23.409,23.409,23.409c12.909,0,23.41-10.501,23.41-23.409c0-1.696-0.21-3.338-0.565-4.926h7.359v-20.12H52.2V27.409z    M34.885,72.649c-12.038,0-21.831-9.794-21.831-21.831c0-12.038,9.793-21.831,21.831-21.831h3.839h11.998H52.2v13.689h-1.459   h-5.802c-2.375-2.929-5.998-4.807-10.055-4.807c-7.139,0-12.947,5.809-12.947,12.948c0,7.139,5.808,12.947,12.947,12.947   c7.14,0,12.948-5.809,12.948-12.947c0-2.396-0.666-4.636-1.807-6.563h4.715H52.2v1.638h3.967c-0.012,0.003-0.021,0.009-0.033,0.01   c0.377,1.578,0.583,3.222,0.583,4.916C56.717,62.855,46.923,72.649,34.885,72.649z M46.255,50.818   c0,6.269-5.101,11.369-11.37,11.369c-6.269,0-11.369-5.101-11.369-11.369c0-6.27,5.1-11.37,11.369-11.37   C41.154,39.448,46.255,44.549,46.255,50.818z M53.778,27.351h9.732v16.964h-9.732V27.351z"/><rect x="66.774" y="27.821" fill="#000000" width="21.75" height="2"/><rect x="66.774" y="32.487" fill="#000000" width="16.736" height="2"/><rect x="66.774" y="37.153" fill="#000000" width="13.127" height="2"/><rect x="66.774" y="41.819" fill="#000000" width="6.564" height="2"/></g><text x="0" y="115" fill="#000000" font-size="5px" font-weight="bold" font-family="'Helvetica Neue', Helvetica, Arial-Unicode, Arial, Sans-serif">Created by asianson.design</text><text x="0" y="120" fill="#000000" font-size="5px" font-weight="bold" font-family="'Helvetica Neue', Helvetica, Arial-Unicode, Arial, Sans-serif">from the Noun Project</text></svg>