<svg xmlns="http://www.w3.org/2000/svg" xmlns:xlink="http://www.w3.org/1999/xlink" version="1.1" x="0px" y="0px" viewBox="0 0 64 80" style="enable-background:new 0 0 64 64;" xml:space="preserve"><g><path d="M62.933,29.936l-1.996,0.129C60.979,30.704,61,31.35,61,32h2C63,31.319,62.978,30.625,62.933,29.936z"/><path d="M54.138,10.3l-1.428,1.4c4.425,4.514,7.203,10.196,8.034,16.432l1.982-0.264C61.838,21.2,58.868,15.125,54.138,10.3z"/><path d="M56.927,30.077C56.976,30.708,57,31.355,57,32h2c0-0.695-0.026-1.395-0.079-2.077L56.927,30.077z"/><path d="M51.483,13.308l-1.443,1.385c3.576,3.727,5.881,8.381,6.666,13.46l1.977-0.305C57.835,22.359,55.346,17.332,51.483,13.308z   "/><path d="M3,32H1c0,0.681,0.022,1.375,0.067,2.064l1.996-0.129C3.021,33.296,3,32.65,3,32z"/><path d="M1.273,36.132C2.161,42.799,5.131,48.874,9.862,53.7l1.428-1.4c-4.426-4.515-7.204-10.197-8.034-16.432L1.273,36.132z"/><path d="M7.073,33.923C7.024,33.292,7,32.645,7,32H5c0,0.695,0.026,1.395,0.079,2.077L7.073,33.923z"/><path d="M5.317,36.152c0.848,5.488,3.337,10.516,7.199,14.54l1.443-1.385c-3.576-3.727-5.881-8.381-6.666-13.46L5.317,36.152z"/><g><circle cx="32" cy="32" r="2"/><path d="M32,10c-12.15,0-22,9.85-22,22c0,12.15,9.85,22,22,22c12.15,0,22-9.85,22-22C54,19.85,44.15,10,32,10z M47.95,31h-8.019    c-0.048-0.378-0.123-0.747-0.222-1.108l7.427-3.047C47.584,28.162,47.86,29.554,47.95,31z M46.37,24.998l-7.425,3.046    c-0.189-0.33-0.401-0.644-0.633-0.942l5.675-5.675C44.934,22.5,45.735,23.699,46.37,24.998z M42.573,20.013l-5.675,5.675    c-0.298-0.232-0.612-0.444-0.942-0.633l3.046-7.425C40.301,18.265,41.5,19.066,42.573,20.013z M33,16.05    c1.446,0.09,2.838,0.366,4.154,0.814l-3.047,7.427c-0.36-0.099-0.729-0.174-1.108-0.222V16.05z M31,16.05v8.019    c-0.378,0.048-0.747,0.123-1.108,0.222l-3.047-7.427C28.162,16.416,29.554,16.14,31,16.05z M24.998,17.63l3.046,7.425    c-0.33,0.189-0.644,0.401-0.943,0.633l-5.675-5.676C22.5,19.066,23.699,18.265,24.998,17.63z M20.013,21.427l5.675,5.676    c-0.232,0.298-0.444,0.612-0.633,0.942l-7.425-3.046C18.265,23.699,19.066,22.5,20.013,21.427z M16.864,26.846l7.427,3.047    c-0.099,0.36-0.174,0.729-0.222,1.108H16.05C16.14,29.554,16.416,28.162,16.864,26.846z M16.05,33h8.019    c0.048,0.378,0.123,0.747,0.222,1.108l-7.427,3.047C16.416,35.838,16.14,34.446,16.05,33z M17.63,39.002l7.425-3.046    c0.189,0.33,0.401,0.643,0.633,0.942l-5.675,5.676C19.066,41.5,18.265,40.301,17.63,39.002z M21.427,43.987l5.675-5.676    c0.299,0.232,0.613,0.445,0.943,0.633l-3.046,7.425C23.699,45.735,22.5,44.934,21.427,43.987z M31,47.95    c-1.446-0.09-2.838-0.366-4.154-0.814l3.047-7.427c0.36,0.099,0.729,0.174,1.108,0.222V47.95z M28,32c0-2.206,1.794-4,4-4    s4,1.794,4,4s-1.794,4-4,4S28,34.206,28,32z M33,47.95v-8.019c0.378-0.048,0.747-0.123,1.108-0.222l3.047,7.427    C35.838,47.584,34.446,47.86,33,47.95z M39.002,46.37l-3.046-7.425c0.33-0.189,0.644-0.401,0.942-0.633l5.675,5.675    C41.5,44.934,40.301,45.735,39.002,46.37z M43.987,42.573l-5.675-5.675c0.23-0.295,0.44-0.606,0.627-0.932l7.384,3.135    C45.695,40.362,44.91,41.527,43.987,42.573z M47.098,37.257l-7.392-3.138c0.1-0.364,0.176-0.736,0.224-1.118h8.019    C47.858,34.483,47.567,35.91,47.098,37.257z"/></g></g><text x="0" y="79" fill="#000000" font-size="5px" font-weight="bold" font-family="'Helvetica Neue', Helvetica, Arial-Unicode, Arial, Sans-serif">Created by Eucalyp</text><text x="0" y="84" fill="#000000" font-size="5px" font-weight="bold" font-family="'Helvetica Neue', Helvetica, Arial-Unicode, Arial, Sans-serif">from the Noun Project</text></svg>